<?xml version="1.0" standalone="no"?>
<!DOCTYPE svg PUBLIC "-//W3C//DTD SVG 20010904//EN"
 "http://www.w3.org/TR/2001/REC-SVG-20010904/DTD/svg10.dtd">
<svg version="1.0" xmlns="http://www.w3.org/2000/svg"
 width="4000.000000pt" height="2911.000000pt" viewBox="0 0 4000.000000 2911.000000"
 preserveAspectRatio="xMidYMid meet">

<g transform="translate(0.000000,2911.000000) scale(0.100000,-0.100000)"
fill="#000000" stroke="none">
<path d="M19566 26209 c-180 -4 -331 -10 -334 -13 -7 -7 103 -5194 110 -5201
6 -6 777 10 781 16 2 2 -20 1104 -49 2449 -29 1345 -53 2516 -53 2603 l-1 157
-62 -2 c-35 0 -211 -5 -392 -9z"/>
<path d="M21545 25880 c-26 -165 -46 -303 -43 -306 3 -3 188 -34 409 -70 222
-35 406 -65 409 -67 3 -1 -157 -1012 -357 -2247 -199 -1235 -362 -2254 -362
-2265 -1 -20 23 -25 385 -84 212 -34 387 -61 388 -59 1 1 166 1020 366 2263
199 1243 364 2261 365 2263 1 1 185 -27 410 -63 224 -36 409 -64 411 -62 7 6
103 601 98 606 -2 2 -153 28 -336 58 -183 29 -723 116 -1200 193 -476 77 -872
140 -880 140 -11 0 -26 -73 -63 -300z"/>
<path d="M16755 25936 c-187 -45 -352 -85 -366 -89 l-25 -6 248 -1048 c136
-577 247 -1054 246 -1062 -2 -10 -139 -47 -453 -122 -247 -59 -451 -106 -452
-105 -1 1 -112 469 -248 1041 -135 572 -249 1049 -253 1061 -7 20 -16 18 -387
-69 -209 -50 -381 -91 -382 -92 -2 -1 10 -52 718 -3040 253 -1067 465 -1960
472 -1985 l12 -46 380 89 c209 50 381 91 383 92 2 2 -121 528 -273 1170 -152
641 -275 1168 -273 1171 3 2 207 52 456 112 435 104 451 108 456 88 25 -110
550 -2322 551 -2323 1 -3 759 177 763 181 1 2 -152 658 -342 1457 -190 800
-456 1922 -591 2494 -293 1238 -262 1115 -283 1114 -9 0 -170 -38 -357 -83z"/>
<path d="M26475 22263 c-687 -1213 -1264 -2232 -1282 -2263 l-32 -57 327 -186
c181 -103 333 -187 339 -187 6 0 219 368 474 818 254 449 470 829 479 844 l16
26 126 -71 c70 -40 127 -78 128 -84 0 -11 -343 -1968 -354 -2014 -2 -12 91
-69 360 -222 333 -188 364 -203 369 -184 4 22 295 2187 295 2198 0 4 55 9 123
12 430 18 818 318 1166 902 274 460 371 733 371 1050 0 448 -230 790 -751
1117 -123 77 -883 508 -896 508 -4 0 -570 -993 -1258 -2207z m1717 1291 c177
-100 337 -233 392 -326 39 -66 66 -154 72 -233 12 -141 -47 -304 -226 -621
-238 -424 -300 -517 -429 -644 -169 -166 -323 -210 -547 -154 -75 19 -369 162
-369 180 0 14 1028 1833 1037 1834 3 0 35 -16 70 -36z"/>
<path d="M12054 24315 c-105 -20 -269 -77 -396 -139 -396 -191 -640 -474 -719
-831 -20 -90 -17 -322 5 -425 49 -226 136 -410 295 -618 128 -169 286 -302
526 -445 130 -77 312 -156 869 -376 761 -301 859 -346 1033 -474 228 -168 410
-486 389 -681 -14 -139 -111 -265 -262 -342 -210 -108 -385 -75 -564 105 -117
118 -213 263 -370 556 -23 44 -44 81 -45 83 -3 4 -508 -268 -523 -283 -26 -24
69 -306 169 -507 120 -242 310 -466 472 -557 208 -117 448 -148 707 -91 256
55 584 227 782 410 177 162 311 409 348 640 52 332 -91 749 -365 1063 -89 102
-178 181 -306 269 -259 179 -417 254 -1204 573 -363 147 -712 294 -775 326
-198 101 -288 181 -394 353 -69 110 -99 201 -100 307 0 77 3 92 31 150 76 154
253 262 433 263 75 0 93 -3 153 -31 177 -83 312 -241 497 -578 51 -93 95 -172
96 -174 6 -7 534 282 534 291 0 16 -88 285 -121 373 -80 207 -201 396 -346
541 -111 110 -257 193 -413 235 -97 27 -332 34 -436 14z"/>
<path d="M8431 21920 c-396 -348 -721 -636 -721 -641 0 -5 287 -337 637 -737
351 -400 1116 -1274 1702 -1942 585 -668 1069 -1221 1076 -1228 10 -11 151
108 749 634 l737 647 -19 21 c-11 11 -103 116 -204 233 l-186 211 -388 -340
c-214 -187 -413 -361 -442 -386 l-53 -45 -47 54 c-26 29 -289 329 -584 666
-296 337 -538 617 -538 622 0 5 143 133 318 286 174 152 321 282 326 289 6 9
-51 81 -195 244 l-203 232 -31 -28 c-16 -16 -156 -138 -310 -272 -154 -134
-290 -252 -301 -262 l-21 -19 -509 581 c-280 319 -510 584 -512 589 -1 4 176
165 395 357 219 192 410 360 426 374 l28 25 -197 225 c-108 124 -200 229 -204
233 -4 5 -332 -276 -729 -623z"/>
<path d="M31435 21504 c-315 -70 -633 -255 -948 -552 -188 -177 -1472 -1479
-1590 -1613 -243 -274 -418 -565 -493 -821 -36 -120 -37 -128 -38 -298 -1
-137 3 -191 17 -249 55 -228 170 -413 384 -622 210 -206 434 -316 707 -349
238 -29 537 50 821 217 263 155 380 260 1051 940 1048 1062 1105 1124 1251
1344 264 401 341 760 236 1094 -46 144 -129 283 -263 436 -200 230 -424 385
-655 455 -78 23 -111 27 -250 30 -118 3 -178 -1 -230 -12z m465 -713 c116 -59
215 -165 252 -270 58 -163 -29 -368 -271 -640 -128 -144 -1864 -1902 -1957
-1982 -197 -169 -378 -258 -503 -246 -101 9 -204 70 -289 171 -116 138 -130
281 -45 450 37 74 133 211 204 291 100 114 1845 1880 1949 1973 156 139 283
221 410 264 75 25 188 20 250 -11z"/>
<path d="M6325 19235 c-279 -52 -567 -248 -813 -553 -84 -105 -131 -169 -412
-567 -101 -143 -198 -281 -216 -306 l-34 -46 1028 -724 c565 -398 1524 -1074
2131 -1502 607 -428 1104 -777 1106 -775 21 26 427 613 431 622 3 8 -290 221
-789 572 l-793 559 86 122 c47 68 90 121 96 119 26 -10 1960 -549 1971 -550
14 -1 497 678 485 681 -8 2 -1263 299 -1829 432 -187 45 -343 81 -345 81 -1 0
-3 78 -4 173 -1 156 -4 180 -28 262 -117 390 -413 722 -976 1094 -234 156
-429 246 -630 293 -115 26 -355 33 -465 13z m237 -724 c93 -32 215 -98 333
-178 255 -175 476 -338 563 -414 161 -142 267 -299 290 -427 20 -111 -16 -269
-90 -402 -45 -82 -152 -240 -162 -240 -4 0 -74 47 -155 103 -80 57 -461 326
-846 597 -385 271 -706 498 -713 505 -10 9 5 35 76 131 195 262 352 360 562
349 48 -2 110 -12 142 -24z"/>
<path d="M35005 17665 c-123 -77 -3116 -1916 -3309 -2032 -218 -132 -309 -174
-428 -197 -144 -29 -244 21 -305 151 -53 115 -24 218 94 335 120 119 206 178
621 427 149 90 272 168 272 174 0 10 -296 494 -316 516 -11 12 -30 7 -131 -33
-200 -81 -492 -230 -634 -325 -260 -173 -419 -342 -507 -536 -83 -185 -93
-395 -30 -605 62 -203 236 -475 400 -625 157 -143 323 -211 538 -222 272 -13
531 73 908 301 110 66 2127 1310 3129 1930 117 72 214 134 215 137 4 8 -404
669 -412 668 -3 0 -50 -29 -105 -64z"/>
<path d="M4480 15563 c-417 -33 -748 -265 -984 -690 -26 -49 -76 -153 -111
-233 -67 -155 -350 -908 -344 -915 2 -2 629 -237 1394 -523 1177 -440 3435
-1285 3471 -1299 12 -4 290 724 281 734 -3 3 -336 129 -739 280 -403 151 -734
276 -735 277 -2 1 15 56 37 122 140 415 157 694 59 989 -124 372 -474 697
-1009 937 -418 187 -784 297 -1060 318 -132 10 -168 10 -260 3z m239 -789
c136 -35 713 -245 904 -330 469 -208 655 -434 619 -754 -13 -125 -67 -294 -90
-287 -12 3 -2130 797 -2284 856 -15 5 -12 16 22 99 117 284 279 430 499 450
113 11 182 4 330 -34z"/>
<path d="M35835 14968 c-325 -115 -1425 -504 -2445 -864 -1020 -361 -1860
-659 -1866 -662 -8 -5 90 -296 307 -912 175 -498 322 -913 326 -922 7 -15 42
-5 298 86 207 74 289 107 287 117 -2 8 -89 256 -193 553 -104 296 -188 539
-187 540 2 1 314 112 693 246 380 134 755 267 835 295 80 29 147 51 150 49 3
-1 71 -187 150 -413 80 -226 148 -411 152 -411 11 0 568 197 575 203 2 3 -61
191 -141 418 -81 227 -145 413 -144 414 3 2 375 135 1386 492 43 15 77 22 82
17 4 -5 92 -245 194 -533 103 -289 188 -526 190 -528 1 -2 133 43 293 99 l290
102 -44 126 c-25 69 -169 479 -322 911 l-276 786 -590 -209z"/>
<path d="M14380 14144 c-205 -44 -380 -203 -452 -413 l-23 -66 0 -4105 0
-4105 24 -74 c49 -149 167 -286 305 -355 142 -71 -49 -66 2418 -66 1225 0
2228 -2 2228 -5 0 -16 -281 -1418 -285 -1426 -4 -5 -162 -9 -386 -9 l-379 0 0
-255 0 -255 -3515 0 -3515 0 0 -85 0 -85 9195 0 9195 0 0 85 0 85 -3515 0
-3515 0 0 255 0 255 -382 2 -383 3 -137 685 c-75 377 -139 700 -143 718 l-6
32 2228 0 c1954 0 2236 2 2288 15 214 54 391 229 445 440 20 78 20 113 20
4141 0 2880 -3 4078 -11 4116 -6 29 -30 94 -54 143 -71 148 -201 262 -365 318
l-65 22 -5575 2 c-4753 1 -5585 -1 -5640 -13z m520 -899 l0 -105 -105 0 -105
0 0 105 0 105 105 0 105 0 0 -105z m10400 5 l0 -100 -5115 0 -5115 0 0 100 0
100 5115 0 5115 0 0 -100z m-10410 -3290 l0 -2990 -100 0 -100 0 0 2990 0
2990 100 0 100 0 0 -2990z m1880 2625 l0 -365 -850 0 -850 0 0 365 0 365 850
0 850 0 0 -365z m8530 0 l0 -365 -4175 0 -4175 0 0 365 0 365 4175 0 4175 0 0
-365z m0 -3080 l0 -2535 -5115 0 -5115 0 0 2535 0 2535 5115 0 5115 0 0 -2535z
m620 -3650 c0 -192 -4 -335 -11 -367 -18 -86 -58 -158 -123 -224 -67 -67 -143
-108 -225 -124 -75 -14 -11057 -14 -11132 0 -147 28 -270 134 -330 285 -23 58
-24 70 -27 403 l-3 342 5925 0 5926 0 0 -315z m-4985 -917 c15 -66 275 -1389
275 -1403 0 -13 -125 -15 -1215 -15 -994 0 -1215 2 -1215 13 0 12 264 1355
277 1405 l5 22 934 0 934 0 5 -22z m1045 -1753 l0 -165 -1985 0 -1985 0 0 165
0 165 1985 0 1985 0 0 -165z"/>
<path d="M15300 12575 l0 -105 110 0 110 0 0 105 0 105 -110 0 -110 0 0 -105z"/>
<path d="M15800 12575 l0 -105 110 0 110 0 0 105 0 105 -110 0 -110 0 0 -105z"/>
<path d="M16300 12575 l0 -105 110 0 110 0 0 105 0 105 -110 0 -110 0 0 -105z"/>
<path d="M17200 12575 l0 -85 3920 0 3920 0 0 85 0 85 -3920 0 -3920 0 0 -85z"/>
<path d="M18580 11505 l0 -105 105 0 105 0 0 105 0 105 -105 0 -105 0 0 -105z"/>
<path d="M19080 11505 l0 -105 105 0 105 0 0 105 0 105 -105 0 -105 0 0 -105z"/>
<path d="M19580 11505 l0 -105 105 0 105 0 0 105 0 105 -105 0 -105 0 0 -105z"/>
<path d="M20080 11505 l0 -105 105 0 105 0 0 105 0 105 -105 0 -105 0 0 -105z"/>
<path d="M20580 11505 l0 -105 105 0 105 0 0 105 0 105 -105 0 -105 0 0 -105z"/>
<path d="M21080 11505 l0 -105 105 0 105 0 0 105 0 105 -105 0 -105 0 0 -105z"/>
<path d="M21580 11505 l0 -105 105 0 105 0 0 105 0 105 -105 0 -105 0 0 -105z"/>
<path d="M17650 9065 l0 -85 3575 0 3575 0 0 85 0 85 -3575 0 -3575 0 0 -85z"/>
<path d="M17650 8585 l0 -85 3575 0 3575 0 0 85 0 85 -3575 0 -3575 0 0 -85z"/>
<path d="M17650 8110 l0 -90 3575 0 3575 0 0 90 0 90 -3575 0 -3575 0 0 -90z"/>
<path d="M17650 7635 l0 -85 3575 0 3575 0 0 85 0 85 -3575 0 -3575 0 0 -85z"/>
<path d="M19360 5650 l0 -90 635 0 635 0 0 90 0 90 -635 0 -635 0 0 -90z"/>
<path d="M4783 8064 c-190 -21 -315 -39 -335 -49 -18 -8 -43 -30 -55 -48 -12
-17 -76 -158 -143 -312 -106 -242 -123 -289 -127 -348 -4 -49 -1 -79 11 -112
17 -44 342 -512 394 -568 49 -51 69 -52 403 -17 349 37 379 41 414 64 39 26
62 71 190 366 107 248 119 282 123 345 5 88 2 92 -188 365 -198 285 -219 310
-265 331 -51 24 -61 23 -422 -17z"/>
<path d="M34780 8078 c-39 -20 -67 -56 -227 -283 -100 -142 -192 -281 -204
-309 -37 -87 -28 -125 106 -441 65 -154 129 -297 142 -318 46 -74 41 -73 513
-123 134 -14 259 -23 277 -19 18 3 46 17 63 31 39 33 375 509 402 570 17 38
19 61 15 118 -4 64 -18 101 -133 365 -83 190 -138 303 -156 321 -19 19 -46 32
-81 39 -51 10 -609 71 -651 71 -12 0 -42 -10 -66 -22z"/>
</g>
</svg>
