<svg xmlns="http://www.w3.org/2000/svg" version="1.1" xmlns:xlink="http://www.w3.org/1999/xlink" xmlns:svgjs="http://svgjs.dev/svgjs" viewBox="0 0 6.398740521572266 4.656931019057828"><g transform="matrix(1,0,0,1,1.7279651638965208,2.3913778241528014)"><g><path d=" M -1.242348619576953 0.0695516915750572 L -1.1979875878498092 -0.04887742464563938 Q -1.189594960225755 -0.07128293311982514 -1.1775175417738977 -0.09726161518985843 Q -1.1654401233220402 -0.1232402972598916 -1.1478756415703821 -0.14716364195260545 Q -1.1303111598187243 -0.17108698664531918 -1.1054298232139637 -0.1901839432295087 Q -1.080548486609203 -0.20928089981369813 -1.0466053722020572 -0.21846585164856813 Q -1.0126622577949111 -0.22765080348343814 -0.9680562016695695 -0.22423833889517208 Q -0.923450145544228 -0.22082587430690603 -0.8658359808963216 -0.19924483184505237 L -0.8384006643973185 -0.18896814495845526 Q -0.7757566917245948 -0.16550304323405873 -0.7351993381109654 -0.13805792808122896 Q -0.6946419844973359 -0.1106128129283993 -0.670914355187229 -0.08138986257140224 Q -0.647186725877122 -0.052166912214405226 -0.6377173377887824 -0.021767140961696185 Q -0.6282479497004428 0.0086326302910128 -0.6283801519333857 0.037521499405511305 Q -0.6285123541663286 0.06641036852000975 -0.6352174083638155 0.09335859930261897 Q -0.6419224625613024 0.12030683008522819 -0.6504863683001332 0.14316959383439742 L -0.6547683211695486 0.154600975708982 L -0.4169955781781888 0.24366559539282304 L -0.46135660990533267 0.3620947116135196 L -1.242348619576953 0.0695516915750572 M -0.7394202079242956 0.11611381532664072 Q -0.7274307398899325 0.08410594607780386 -0.7285831235178142 0.05864649152568069 Q -0.7297355071456959 0.033187036973557626 -0.7447446853363395 0.012704663643748337 Q -0.7597538635269832 -0.007777709686060952 -0.7889348734286372 -0.025225951485551623 Q -0.8181158833302914 -0.04267419328504218 -0.8620123897286962 -0.0591168923035974 L -0.9324297020761374 -0.08549372197919647 Q -0.9671811029748747 -0.09851085870221943 -0.9944428299989954 -0.10298698604750445 Q -1.0217045570231158 -0.10746311339278947 -1.0430471731936515 -0.1005973501877212 Q -1.0643897893641867 -0.09373158698265294 -1.0806131061856736 -0.07478070079204135 Q -1.0968364230071606 -0.05582981460142977 -1.1093397253858535 -0.022450179527642722 L -1.1115663408779497 -0.016505860952858664 L -0.7416468234163917 0.12205813390142473 L -0.7394202079242956 0.11611381532664072 M -0.952020109276913 -0.576059626267699 L -0.8729677673644256 -0.6882046068178318 Q -0.8594641644754597 -0.7073610447765732 -0.8416916036848242 -0.7291835608405686 Q -0.8239190428941888 -0.7510060769045639 -0.8015569188426049 -0.7695933547764111 Q -0.7791947947910209 -0.7881806326482583 -0.7517720378893405 -0.8008110022573153 Q -0.7243492809876602 -0.8134413718663722 -0.6911232982863242 -0.8148121556014476 Q -0.6578973155849882 -0.816182939336523 -0.6183381537962053 -0.8032322583681443 Q -0.5787789920074223 -0.7902815773997656 -0.5324842669404637 -0.7576478704180982 L -0.515323291269091 -0.7455508928300663 Q -0.43750026206170356 -0.6906925060936426 -0.40436563939162534 -0.6338810086022293 Q -0.3712310167215472 -0.577069511110816 -0.38034445557832286 -0.5183768799960871 L -0.03068124063254979 -0.43558319723632705 L -0.10776430712372975 -0.3262318638885108 L -0.4266451761118774 -0.41540458950131987 L -0.45393370694999585 -0.37669262112636304 L -0.1989136266242491 -0.19692590766700538 L -0.2703701919116933 -0.09555642346866475 L -0.952020109276913 -0.576059626267699 M -0.5175923191503083 -0.44486501322276994 Q -0.49846221505760674 -0.47200330033098714 -0.4912263240909344 -0.4949805217350567 Q -0.4839904331242621 -0.5179577431391262 -0.48999978861916454 -0.5395184640424969 Q -0.49600914411406694 -0.5610791849458676 -0.515698827093855 -0.5827249029139538 Q -0.535388510073643 -0.6043706208820401 -0.5697104614163881 -0.628564576058104 L -0.6235879431753488 -0.6665434591833204 Q -0.6499280453686184 -0.6851109131556483 -0.6724603840496013 -0.6938254065549287 Q -0.6949927227305843 -0.7025398999542092 -0.7153823531275951 -0.6998868417819969 Q -0.7357719835246057 -0.6972337836097845 -0.7549806482154915 -0.6826963140113186 Q -0.7741893129063773 -0.6681588444128527 -0.7941633921796393 -0.6398232799322141 L -0.8051350695269239 -0.6242586740907367 L -0.528563996497593 -0.42930040738129244 L -0.5175923191503083 -0.44486501322276994 M -0.4962106011482912 -1.1386515646504134 L -0.26378435360269675 -1.3423909606775442 L -0.19812426388779203 -1.2674858192884426 L -0.3354503564344782 -1.1471089881444505 L -0.17097826896233945 -0.9594789526060639 L -0.06486265199444563 -1.0524974130355123 L 0.0007974377204590377 -0.9775922716464107 L -0.10531817924743478 -0.8845738112169623 L 0.08297178390560074 -0.6697723028217447 L 0.22396969710861542 -0.7933677658145064 L 0.2896297868235201 -0.7184626244254049 L 0.053531718621597085 -0.5115045965495043 L -0.4962106011482912 -1.1386515646504134 M 0.2713407829451653 -0.9117260527680973 Q 0.25860974191367886 -0.9353721263541461 0.25064076137450064 -0.9568683843260721 Q 0.2426717808353224 -0.9783646422979981 0.23576128521565634 -1.0045899424262883 L 0.3221769359573984 -1.0511161105595388 L 0.3413892342412779 -1.0154320358751379 Q 0.3573609038989609 -0.985766961739913 0.373283391174419 -0.9649482698982229 Q 0.3892058784498771 -0.9441295780565329 0.40603826813309907 -0.9329509164969547 Q 0.422870657816321 -0.9217722549373766 0.441125596918668 -0.9213414635224931 Q 0.45938053602101503 -0.9209106721076096 0.4795871807218204 -0.931789925352698 Q 0.5114018979103224 -0.9489189623768798 0.5187944380572442 -0.9753585365671151 Q 0.5261869782041662 -1.0017981107573506 0.5081320472867854 -1.0353325423884745 Q 0.4988731083547952 -1.0525296868146916 0.4887541396406486 -1.0656591911685 Q 0.478635170926502 -1.0787886955223085 0.4651925100637618 -1.089851447784391 Q 0.45174984920102157 -1.1009142000464736 0.4334127093805056 -1.1112827044495026 Q 0.41507556955998964 -1.1216512088525317 0.3891818332779051 -1.132664951293235 L 0.1987981234717174 -1.2081741975226954 Q 0.14654770396094893 -1.231061539625413 0.1081377183918601 -1.2622323992630056 Q 0.06972773282277125 -1.2934032589005984 0.04519154465299735 -1.3389756916300741 Q 0.025516299422518318 -1.3755196235357858 0.020474791000604786 -1.412178601934765 Q 0.01543328257869131 -1.4488375803337443 0.025008829236525643 -1.4825525774474868 Q 0.034584375894359976 -1.5162675745612293 0.059587134788491314 -1.545533840252441 Q 0.08458989368262262 -1.5748001059436527 0.1245732544735779 -1.5963271389605298 Q 0.1731551874776418 -1.6224836414434018 0.21302194872771912 -1.6262021731365595 Q 0.25288870997779644 -1.629920704829717 0.2842721180688781 -1.6179807233741235 Q 0.3156555261599598 -1.6060407419185296 0.33853924448491934 -1.5825926057872999 Q 0.36142296280987896 -1.55914446965607 0.37646873857436297 -1.5311991099634668 Q 0.3891997796058494 -1.5075530363774179 0.39630890292371673 -1.4855938314588921 Q 0.4034180262415841 -1.4636346265403668 0.41165132602916055 -1.4370124161373652 L 0.325665603898074 -1.3907177214774145 L 0.3069162525607939 -1.4255419389405046 Q 0.2754358601920275 -1.4840122299896434 0.24188681756223346 -1.506154588803472 Q 0.20833777493243943 -1.5282969476173003 0.17050405719476136 -1.5079272819669223 Q 0.13911926861691476 -1.4910297184160402 0.13301651430195915 -1.465284564645704 Q 0.12691375998700358 -1.4395394108753679 0.1426539561713868 -1.4103042653507984 Q 0.1509870012101779 -1.3948268353672029 0.1600643392944757 -1.383632009761344 Q 0.16914167737877342 -1.372437184155485 0.1793270278864994 -1.3643344046640742 Q 0.1895123783942254 -1.3562316251726636 0.20128519743995124 -1.349815369227085 Q 0.21305801648567707 -1.3433991132815062 0.22701349692062417 -1.3370488940078158 L 0.4406783530090197 -1.250228395192464 Q 0.5007001607258388 -1.2232068586629126 0.5424171567147036 -1.1910437233385416 Q 0.5841341527035684 -1.1588805880141706 0.6095962347665412 -1.1115884408420729 Q 0.6306603208368188 -1.0724649372724286 0.635304918984021 -1.0344831547055389 Q 0.6399495171312232 -0.9965013721386493 0.6289684479047726 -0.9623069189103354 Q 0.6179873786783221 -0.9281124656820213 0.5921082533949078 -0.8989289183915155 Q 0.5662291281114936 -0.8697453711010095 0.5258158387098829 -0.8479868646108326 Q 0.47594411987385266 -0.8211359417080613 0.4358789034864197 -0.8167560079309486 Q 0.39581368709898673 -0.8123760741538358 0.3644467881758771 -0.8237703902621241 Q 0.3330798892527675 -0.8351647063704124 0.310080434191158 -0.8588278068069701 Q 0.28708097912954855 -0.8824909072435279 0.2713407829451653 -0.9117260527680973 M 0.620430429238099 -1.8050776456104196 L 0.7434841766297489 -1.8342518115382394 L 0.8240228972412975 -1.4945474509782795 L 0.9698819723348747 -1.5291284121359654 L 0.889343251723326 -1.8688327726959253 L 1.0123969991149757 -1.898006938623745 L 1.2047887960443817 -1.0865173612301626 L 1.081735048652732 -1.0573431953023429 L 0.9928608520618061 -1.432205769402774 L 0.847001776968229 -1.3976248082450882 L 0.9358759735591548 -1.022762234144657 L 0.812822226167505 -0.9935880682168372 L 0.620430429238099 -1.8050776456104196 M 1.347600957117856 -1.9261282643205972 L 1.474037602060384 -1.9287987549850625 L 1.4916484053611816 -1.0950003396883907 L 1.3652117604186536 -1.0923298490239255 L 1.347600957117856 -1.9261282643205972 M 1.8432148956222925 -1.803719889165713 L 1.7106455219410948 -1.825068570772093 L 1.7264823621145549 -1.9234109425210544 L 2.1159952855124016 -1.8606846343830359 L 2.1001584453389412 -1.7623422626340743 L 1.9680711421074935 -1.7836133126709768 L 1.851313261612964 -1.058579356247262 L 1.726457015127763 -1.0786859327419982 L 1.8432148956222925 -1.803719889165713 M 2.708089319454232 -1.6503420925098176 L 2.827441030373927 -1.5826594616139948 Q 2.8478285112427715 -1.5710980157670216 2.871287560546327 -1.5555494103570977 Q 2.8947466098498826 -1.540000804947174 2.9154357294192677 -1.519567698912423 Q 2.9361248489886527 -1.4991345928776718 2.9513816282642154 -1.473081483299604 Q 2.9666384075397785 -1.4470283737215364 2.9712584571297884 -1.4140966243555573 Q 2.975878506719799 -1.3811648749895782 2.9668666147446485 -1.340527045052387 Q 2.9578547227694987 -1.2998892151151962 2.9299145619726463 -1.2506194696821549 L 2.9195574334013994 -1.2323556847371484 Q 2.872589059648071 -1.1495315437074671 2.819297892045789 -1.110989347061572 Q 2.7660067244435074 -1.0724471504156772 2.7067035267259945 -1.075765351049062 L 2.6585723234880922 -0.7196719011429883 L 2.5421937868617706 -0.785668487852794 L 2.599689739757358 -1.1117528312372655 L 2.5584900388349014 -1.1351165863863573 L 2.40457829099707 -0.8637082473198635 L 2.2966945380661006 -0.9248875649267637 L 2.708089319454232 -1.6503420925098176 M 2.620096333153004 -1.205149139187232 Q 2.6489785977172007 -1.1887704242373531 2.672554291228457 -1.1838209296170392 Q 2.696129984739713 -1.178871434996725 2.7169980737556307 -1.1869646358567618 Q 2.737866162771548 -1.1950578367167983 2.7574782842995256 -1.2167738541088142 Q 2.777090405827503 -1.23848987150083 2.797804662969997 -1.275017441390843 L 2.8303212294146087 -1.3323572313344685 Q 2.8462182174541972 -1.36039001752913 2.852682793083959 -1.3836678598597179 Q 2.8591473687137214 -1.4069457021903058 2.8545090690573485 -1.4269772253897415 Q 2.8498707694009755 -1.4470087485891776 2.833520979544078 -1.4647004187525194 Q 2.81717118968718 -1.4823920889158613 2.7870147075686806 -1.499493394231176 L 2.7704498793627446 -1.5088870689818417 L 2.603531504947068 -1.2145428139378978 L 2.620096333153004 -1.205149139187232 M 2.8714253161247187 -0.5113750838197976 Q 2.857179763598246 -0.525440853073032 2.8427319825952053 -0.5441665363797961 Q 2.8282842015921648 -0.56289221968656 2.8191583524598163 -0.5863128967099245 Q 2.810032503327468 -0.609733573733289 2.8081264199457108 -0.6380339331182865 Q 2.8062203365639538 -0.6663342925032839 2.816193932986318 -0.6997165627264822 Q 2.826167529408682 -0.7330988329496805 2.850952227101237 -0.7720995401146418 Q 2.875736924793791 -0.811100247279603 2.9196495702673033 -0.8555741673622493 L 3.127205433638202 -1.0657829302528825 Q 3.171461146654476 -1.1106043028361747 3.2099746030804184 -1.1353633220186365 Q 3.2484880595063608 -1.1601223412010986 3.281743165950927 -1.1701738260375516 Q 3.3149982723954934 -1.1802253108740046 3.342805955255767 -1.1781576152877555 Q 3.3706136381160414 -1.1760899197015067 3.3938074489805663 -1.166569535182911 Q 3.417001259845091 -1.1570491506643155 3.4353899326320088 -1.143009691158384 Q 3.4537786054189263 -1.128970231652453 3.4676767054447533 -1.1152475299419804 Q 3.480879900469289 -1.1022109633170314 3.495149570264123 -1.0843473338250558 Q 3.509419240058957 -1.0664837043330802 3.519229031797887 -1.0441031923327107 Q 3.5290388235368173 -1.0217226803323414 3.531804768254421 -0.9939456921772543 Q 3.534570712972024 -0.9661687040221674 3.5249423765713637 -0.9327886262779109 Q 3.5153140401707033 -0.8994085485336545 3.4907030687284717 -0.8602363075973125 Q 3.46609209728624 -0.8210640666609703 3.4211502491844423 -0.7755477890763869 L 3.2135943858135443 -0.5653390261857537 Q 3.1700248078827937 -0.521212558603753 3.1313376252065286 -0.4966250731926719 Q 3.092650442530263 -0.4720375877815908 3.059052268542935 -0.46163865044449215 Q 3.0254540945556068 -0.4512397131073935 2.996784357880544 -0.4531292974854358 Q 2.968114621205482 -0.45501888186347805 2.944582127756079 -0.46350129383802047 Q 2.921049634306676 -0.4719837058125629 2.9026653464776424 -0.4853326452750867 Q 2.8842810586486087 -0.49868158473761043 2.8714253161247187 -0.5113750838197976 M 2.938323486963273 -0.5791283214457041 Q 2.9515266819878083 -0.5660917548207551 2.9658889563121136 -0.5608312123604373 Q 2.980251230636419 -0.5555706699001193 2.997657263266742 -0.5603424003796873 Q 3.015063295897065 -0.5651141308592553 3.0363751406481945 -0.580096245486916 Q 3.0576869853993234 -0.5950783601145767 3.0851323888202686 -0.6228745601662307 L 3.351695869546199 -0.8928451531679199 Q 3.379827408052668 -0.9213362582208653 3.395395324148434 -0.9437052874126146 Q 3.4109632402442 -0.9660743166043639 3.416028131664776 -0.9840607249170876 Q 3.4210930230853513 -1.0020471332298113 3.415993572415615 -1.0166888932075626 Q 3.410894121745879 -1.0313306531853137 3.397690926721343 -1.0443672198102627 Q 3.3841402791961617 -1.0577468539779735 3.369261211078772 -1.0628314777090266 Q 3.354382142961382 -1.0679161014400798 3.3362877827665933 -1.0627947259809243 Q 3.3181934225718046 -1.0576733505217686 3.296023908963771 -1.0418226046424937 Q 3.273854395355737 -1.025971858763219 3.245722856849268 -0.9974807537102736 L 2.979159376123338 -0.7275101607085843 Q 2.9517139727023927 -0.6997139606569303 2.9370037254635313 -0.6782135627167951 Q 2.92229347822467 -0.65671316477666 2.9179169143685595 -0.6390764014435238 Q 2.9135403505124495 -0.6214396381103878 2.9191565949752705 -0.6069737968619013 Q 2.9247728394380914 -0.592507955613415 2.938323486963273 -0.5791283214457041 M 3.1472364843004317 -0.17079160936809062 Q 3.122626272948445 -0.21068651032310687 3.118430265560647 -0.24538937389222823 Q 3.1142342581728486 -0.2800922374613496 3.125510133701806 -0.3097096798816667 Q 3.1367860092307627 -0.33932712230198386 3.161102411031933 -0.3640804337553416 Q 3.1854188128331034 -0.38883374520869934 3.217417847974106 -0.4085731855639385 Q 3.2398587297613024 -0.42241642944943086 3.269704326573047 -0.4368114811116598 Q 3.299549923384792 -0.45120653277388867 3.33139780071676 -0.46282075942560585 L 3.384463568944481 -0.3767973792413521 L 3.2972555477705296 -0.32472197030022565 Q 3.2698278033639556 -0.307802449995735 3.2528729926932654 -0.2939011602989277 Q 3.2359181820225746 -0.27999987060212045 3.2281099816745735 -0.2680117782816481 Q 3.2203017813265724 -0.25602368596117575 3.2205216538305415 -0.24497193596981473 Q 3.220741526334511 -0.23392018597845365 3.227919504645507 -0.2222841731999073 Q 3.2338157011152537 -0.2127260198461013 3.2422984408924087 -0.20734514728881043 Q 3.250781180669564 -0.2019642747315196 3.2634641808681444 -0.2023298585128163 Q 3.276147181066724 -0.20269544229411302 3.2939411932149745 -0.20965615927709597 Q 3.3117352053632247 -0.21661687626007894 3.335838374690214 -0.23148554561857076 L 3.889318050775918 -0.5711927997360391 L 3.9557143501526313 -0.4635596815344849 L 3.417964331029808 -0.1318345410191672 Q 3.363108842216661 -0.09799550041018582 3.3205101128335257 -0.0889287220256402 Q 3.2779113834503906 -0.07986194364109464 3.2452257223187386 -0.08867139633910465 Q 3.2125400611870867 -0.09748084903711468 3.1887325674483793 -0.11979899917189368 Q 3.164925073709672 -0.1421171493066727 3.1472364843004317 -0.17079160936809062 M 4.09878771135674 -0.1626260392487877 L 4.201817919543065 0.12877828165724958 L 4.10790562654965 0.1619823297931265 L 4.047031538300542 -0.010190207361467418 L 3.8117904514395864 0.07298267792006735 L 3.8588295196320788 0.20602509299407173 L 3.764917226638664 0.2392291411299486 L 3.7178781584461715 0.10618672605594423 L 3.448570847656232 0.2014042170338265 L 3.511072585323765 0.3781802979626074 L 3.41716029233035 0.4113843460984843 L 3.3125024347256007 0.11537648141826003 L 4.09878771135674 -0.1626260392487877" fill="#231f20" fill-rule="nonzero"></path></g><g clip-path="url(&quot;#SvgjsClipPath1001&quot;)"><g clip-path="url(&quot;#ac3b813f7-78bf-4e9c-85d6-9e427f7da0a12d8f9770-af6a-4110-a729-5b3a38f130f4&quot;)"><path d=" M 2.432046747700122 1.2642889769719143 L 0.5092813690599864 1.2642889769719143 L 0.5092813690599864 0.09869924474429914 C 0.5092813690599864 0.05197628440171306 0.5471575365950041 0.014100116866695607 0.5938820702601593 0.014100116866695607 L 2.347447619822518 0.014100116866695607 C 2.3941690068425348 0.014100116866695607 2.432046747700122 0.05197628440171306 2.432046747700122 0.09869924474429914 Z" fill="#5a5758" transform="matrix(1,0,0,1,0,0)" fill-rule="nonzero"></path></g><g clip-path="url(&quot;#ac3b813f7-78bf-4e9c-85d6-9e427f7da0a12d8f9770-af6a-4110-a729-5b3a38f130f4&quot;)"><path d=" M 2.432046747700122 1.2642889769719143 L 0.5092813690599864 1.2642889769719143 L 0.5092813690599864 0.09869924474429914 C 0.5092813690599864 0.05197628440171306 0.5471575365950041 0.014100116866695607 0.5938820702601593 0.014100116866695607 L 2.347447619822518 0.014100116866695607 C 2.3941690068425348 0.014100116866695607 2.432046747700122 0.05197628440171306 2.432046747700122 0.09869924474429914 Z" fill="none" transform="matrix(1,0,0,1,0,0)" fill-rule="nonzero" stroke-dasharray="none" stroke-miterlimit="10" stroke-linejoin="miter" stroke-linecap="butt" stroke-width="0.02820023373339098" stroke="#231f20"></path></g><g clip-path="url(&quot;#ac3b813f7-78bf-4e9c-85d6-9e427f7da0a12d8f9770-af6a-4110-a729-5b3a38f130f4&quot;)"><path d=" M 0.5092813690599862 1.2642889769719143 L 2.432046747700122 1.2642889769719143 L 2.432046747700122 1.3739542800247238 C 2.432046747700122 1.4206772403673096 2.3941721534876734 1.458553407902327 2.347447619822518 1.458553407902327 L 0.5938836435827286 1.458553407902327 C 0.5471575365950038 1.458553407902327 0.5092813690599862 1.4206772403673096 0.5092813690599862 1.3739542800247238 Z" fill="#ffffff" transform="matrix(1,0,0,1,0,0)" fill-rule="nonzero"></path></g><g clip-path="url(&quot;#ac3b813f7-78bf-4e9c-85d6-9e427f7da0a12d8f9770-af6a-4110-a729-5b3a38f130f4&quot;)"><path d=" M 0.5092813690599862 1.2642889769719143 L 2.432046747700122 1.2642889769719143 L 2.432046747700122 1.3739542800247238 C 2.432046747700122 1.4206772403673096 2.3941721534876734 1.458553407902327 2.347447619822518 1.458553407902327 L 0.5938836435827286 1.458553407902327 C 0.5471575365950038 1.458553407902327 0.5092813690599862 1.4206772403673096 0.5092813690599862 1.3739542800247238 Z" fill="none" transform="matrix(1,0,0,1,0,0)" fill-rule="nonzero" stroke-dasharray="none" stroke-miterlimit="10" stroke-linejoin="miter" stroke-linecap="butt" stroke-width="0.02820023373339098" stroke="#231f20"></path></g><g clip-path="url(&quot;#SvgjsClipPath10002d8f9770-af6a-4110-a729-5b3a38f130f4&quot;)"><path d=" M 1.3682890195298316 1.3614192798188245 L 1.5730443653528048 1.3614192798188245" fill="none" transform="matrix(1,0,0,1,0,0)" fill-rule="nonzero" stroke-dasharray="none" stroke-miterlimit="10" stroke-linejoin="miter" stroke-linecap="butt" stroke-width="0.02820023373339098" stroke="#231f20"></path></g><g clip-path="url(&quot;#SvgjsClipPath10002d8f9770-af6a-4110-a729-5b3a38f130f4&quot;)"><path d=" M 0.6082040256091359 1.1641721685926127 L 0.6684056404035162 1.1641721685926127 L 0.6684056404035162 0.1793257331342431 L 0.6082040256091359 0.1793257331342431 Z" fill="#d3d2d2" transform="matrix(1,0,0,1,0,0)" fill-rule="nonzero" stroke-dasharray="none" stroke-miterlimit="10" stroke-linejoin="miter" stroke-linecap="butt" stroke-width="0.02820023373339098" stroke="#231f20"></path></g><g clip-path="url(&quot;#SvgjsClipPath10002d8f9770-af6a-4110-a729-5b3a38f130f4&quot;)"><path d=" M 0.6082040256091359 0.17645284612257328 L 2.333120944505833 0.17645284612257328 L 2.333120944505833 0.11624965800562335 L 0.6082040256091359 0.11624965800562335 Z" fill="#d3d2d2" transform="matrix(1,0,0,1,0,0)" fill-rule="nonzero" stroke-dasharray="none" stroke-miterlimit="10" stroke-linejoin="miter" stroke-linecap="butt" stroke-width="0.028171913927142318" stroke="#231f20"></path></g><g clip-path="url(&quot;#SvgjsClipPath10002d8f9770-af6a-4110-a729-5b3a38f130f4&quot;)"><path d=" M 0.6684069180901692 0.18975634663060356 L 0.6684069180901692 0.11866891297875104" fill="none" transform="matrix(1,0,0,1,0,0)" fill-rule="nonzero" stroke-dasharray="none" stroke-miterlimit="10" stroke-linejoin="miter" stroke-linecap="butt" stroke-width="0.02820023373339098" stroke="#231f20"></path></g><g clip-path="url(&quot;#SvgjsClipPath10002d8f9770-af6a-4110-a729-5b3a38f130f4&quot;)"><path d=" M 0.6555421550763457 0.1635893607954028 L 0.6210690842588757 0.1635893607954028 L 0.6210690842588757 0.12911471665536356 L 0.6555421550763457 0.12911471665536356 Z" fill="#f9b25f" transform="matrix(1,0,0,1,0,0)" fill-rule="nonzero"></path></g><g clip-path="url(&quot;#SvgjsClipPath10002d8f9770-af6a-4110-a729-5b3a38f130f4&quot;)"><path d=" M 2.333120944505833 1.1641721685926127 L 0.6684056404035162 1.1641721685926127 L 0.6684056404035162 0.1793257331342431 L 2.333120944505833 0.1793257331342431 Z" fill="#ffffff" transform="matrix(1,0,0,1,0,0)" fill-rule="nonzero" stroke-dasharray="none" stroke-miterlimit="10" stroke-linejoin="miter" stroke-linecap="butt" stroke-width="0.02820023373339098" stroke="#231f20"></path></g><g clip-path="url(&quot;#SvgjsClipPath10002d8f9770-af6a-4110-a729-5b3a38f130f4&quot;)"><path d=" M 0.6684069180901692 0.3252221185016592 L 2.333122222192486 0.3252221185016592" fill="none" transform="matrix(1,0,0,1,0,0)" fill-rule="nonzero" stroke-dasharray="none" stroke-miterlimit="10" stroke-linejoin="miter" stroke-linecap="butt" stroke-width="0.02820023373339098" stroke="#231f20"></path></g><g clip-path="url(&quot;#SvgjsClipPath10002d8f9770-af6a-4110-a729-5b3a38f130f4&quot;)"><path d=" M 0.9688395137525281 0.18219257946893855 L 0.9688395137525281 0.32522176092781163" fill="none" transform="matrix(1,0,0,1,0,0)" fill-rule="nonzero" stroke-dasharray="none" stroke-miterlimit="10" stroke-linejoin="miter" stroke-linecap="butt" stroke-width="0.02820023373339098" stroke="#231f20"></path></g><g clip-path="url(&quot;#SvgjsClipPath10002d8f9770-af6a-4110-a729-5b3a38f130f4&quot;)"><path d=" M 1.0241293537099345 0.2537073489852989 L 2.2783270397219084 0.2537073489852989" fill="none" transform="matrix(1,0,0,1,0,0)" fill-rule="nonzero" stroke-dasharray="none" stroke-miterlimit="10" stroke-linejoin="miter" stroke-linecap="butt" stroke-width="0.02820023373339098" stroke="#231f20"></path></g><g clip-path="url(&quot;#SvgjsClipPath10002d8f9770-af6a-4110-a729-5b3a38f130f4&quot;)"><path d=" M 0.7541611603696069 0.27074993431777455 L 0.719688089552137 0.27074993431777455 L 0.719688089552137 0.23627529017773502 L 0.7541611603696069 0.23627529017773502 Z M 0.8341693329897883 0.27074993431777455 L 0.7996962621723185 0.27074993431777455 L 0.7996962621723185 0.23627529017773502 L 0.8341693329897883 0.23627529017773502 Z M 0.9141775056099697 0.27074993431777455 L 0.8797044347924998 0.27074993431777455 L 0.8797044347924998 0.23627529017773502 L 0.9141775056099697 0.23627529017773502 Z" fill="#231f20" transform="matrix(1,0,0,1,0,0)" fill-rule="nonzero"></path></g><g clip-path="url(&quot;#SvgjsClipPath10002d8f9770-af6a-4110-a729-5b3a38f130f4&quot;)"><path d=" M 2.2401061142046688 0.7383036421929251 L 0.7614173240595421 0.7383036421929251 L 0.7614173240595421 0.5009569193454491 L 2.2401061142046688 0.5009569193454491 Z" fill="#75bebc" transform="matrix(1,0,0,1,0,0)" fill-rule="nonzero"></path></g><g clip-path="url(&quot;#SvgjsClipPath10002d8f9770-af6a-4110-a729-5b3a38f130f4&quot;)"><path d=" M 1.0953762643892124 0.8156586692558218 L 2.240110032637257 0.8156586692558218" fill="none" transform="matrix(1,0,0,1,0,0)" fill-rule="nonzero" stroke-dasharray="none" stroke-miterlimit="10" stroke-linejoin="miter" stroke-linecap="butt" stroke-width="0.027956368735138605" stroke="#231f20"></path></g><g clip-path="url(&quot;#SvgjsClipPath10002d8f9770-af6a-4110-a729-5b3a38f130f4&quot;)"><path d=" M 1.0953762643892124 0.8917919387208182 L 2.240110032637257 0.8917919387208182" fill="none" transform="matrix(1,0,0,1,0,0)" fill-rule="nonzero" stroke-dasharray="none" stroke-miterlimit="10" stroke-linejoin="miter" stroke-linecap="butt" stroke-width="0.027956368735138605" stroke="#231f20"></path></g><g clip-path="url(&quot;#SvgjsClipPath10002d8f9770-af6a-4110-a729-5b3a38f130f4&quot;)"><path d=" M 1.0953762643892124 0.9679263881806914 L 2.240110032637257 0.9679263881806914" fill="none" transform="matrix(1,0,0,1,0,0)" fill-rule="nonzero" stroke-dasharray="none" stroke-miterlimit="10" stroke-linejoin="miter" stroke-linecap="butt" stroke-width="0.027956368735138605" stroke="#231f20"></path></g><g clip-path="url(&quot;#SvgjsClipPath10002d8f9770-af6a-4110-a729-5b3a38f130f4&quot;)"><path d=" M 1.0953762643892124 1.0440584776508108 L 2.240110032637257 1.0440584776508108" fill="none" transform="matrix(1,0,0,1,0,0)" fill-rule="nonzero" stroke-dasharray="none" stroke-miterlimit="10" stroke-linejoin="miter" stroke-linecap="butt" stroke-width="0.027956368735138605" stroke="#231f20"></path></g><g clip-path="url(&quot;#SvgjsClipPath10002d8f9770-af6a-4110-a729-5b3a38f130f4&quot;)"><path d=" M 1.038710706943327 1.0611226869440054 L 0.7614188973821115 1.0611226869440054 L 0.7614188973821115 0.8013419575798798 L 1.038710706943327 0.8013419575798798 Z" fill="#f9b25f" transform="matrix(1,0,0,1,0,0)" fill-rule="nonzero"></path></g><g clip-path="url(&quot;#SvgjsClipPath10002d8f9770-af6a-4110-a729-5b3a38f130f4&quot;)"><path d=" M 1.2778557374875932 0.44192742986524935 L 1.2433826666701235 0.44192742986524935 L 1.2433826666701235 0.4074543590477793 L 1.2778557374875932 0.4074543590477793 Z M 1.357903243172009 0.44192742986524935 L 1.3234301723545392 0.44192742986524935 L 1.3234301723545392 0.4074543590477793 L 1.3579032431720093 0.4074543590477793 Z M 1.4379507488564247 0.44192742986524935 L 1.4034776780389548 0.44192742986524935 L 1.4034776780389548 0.4074543590477793 L 1.437950748856425 0.4074543590477793 Z M 1.5179998278634097 0.44192742986524935 L 1.4835267570459398 0.44192742986524935 L 1.4835267570459398 0.4074543590477793 L 1.5179998278634097 0.4074543590477793 Z M 1.5980473335478256 0.44192742986524935 L 1.5635742627303557 0.44192742986524935 L 1.5635742627303557 0.4074543590477793 L 1.5980473335478256 0.4074543590477793 Z M 1.6780948392322412 0.44192742986524935 L 1.6436217684147711 0.44192742986524935 L 1.6436217684147711 0.4074543590477793 L 1.6780948392322412 0.4074543590477793 Z M 1.7581423449166567 0.44192742986524935 L 1.7236692740991868 0.44192742986524935 L 1.7236692740991868 0.4074543590477793 L 1.7581423449166567 0.4074543590477793 Z" fill="#231f20" transform="matrix(1,0,0,1,0,0)" fill-rule="nonzero"></path></g><g clip-path="url(&quot;#SvgjsClipPath10002d8f9770-af6a-4110-a729-5b3a38f130f4&quot;)"><path d=" M 1.8027916661128127 1.7969499194127414 L 1.138531730679587 1.7969499194127414 L 1.138531730679587 1.7154848500933235 L 1.8027916661128127 1.7154848500933235 Z" fill="#ffffff" transform="matrix(1,0,0,1,0,0)" fill-rule="nonzero"></path></g><g clip-path="url(&quot;#bc3b813f7-78bf-4e9c-85d6-9e427f7da0a12d8f9770-af6a-4110-a729-5b3a38f130f4&quot;)"><path d=" M 1.8027916661128127 1.7969499194127414 L 1.138531730679587 1.7969499194127414 L 1.138531730679587 1.7154848500933235 L 1.8027916661128127 1.7154848500933235 Z" fill="none" transform="matrix(1,0,0,1,0,0)" fill-rule="nonzero" stroke-dasharray="none" stroke-miterlimit="10" stroke-linejoin="miter" stroke-linecap="butt" stroke-width="0.02820023373339098" stroke="#231f20"></path></g><g clip-path="url(&quot;#SvgjsClipPath10002d8f9770-af6a-4110-a729-5b3a38f130f4&quot;)"><path d=" M 1.6319116750037133 1.4585517381151767 L 1.6827913535745753 1.7154831803061728 L 1.2585417760987694 1.7154831803061728 L 1.3094214546696314 1.4585517381151767 Z" fill="#ffffff" transform="matrix(1,0,0,1,0,0)" fill-rule="nonzero"></path></g><g clip-path="url(&quot;#SvgjsClipPath10002d8f9770-af6a-4110-a729-5b3a38f130f4&quot;)"><path d=" M 1.6319116750037133 1.4585517381151767 L 1.6827913535745753 1.7154831803061728 L 1.2585417760987694 1.7154831803061728 L 1.3094214546696314 1.4585517381151767 Z" fill="none" transform="matrix(1,0,0,1,0,0)" fill-rule="nonzero" stroke-dasharray="none" stroke-miterlimit="10" stroke-linejoin="miter" stroke-linecap="butt" stroke-width="0.02820023373339098" stroke="#231f20"></path></g><g clip-path="url(&quot;#cc3b813f7-78bf-4e9c-85d6-9e427f7da0a12d8f9770-af6a-4110-a729-5b3a38f130f4&quot;)"><path d=" M 0 1.7977019676009003 L 2.9413265434375386 1.7977019676009003" fill="none" transform="matrix(1,0,0,1,0,0)" fill-rule="nonzero" stroke-dasharray="none" stroke-miterlimit="10" stroke-linejoin="miter" stroke-linecap="butt" stroke-width="0.02820023373339098" stroke="#231f20"></path></g></g><g transform="matrix(-0.10203065281732532,-0.9947812552946856,0.9947812552946856,-0.10203065281732532,-2.12422823244325,0.2640611985799437)"><g clip-path="url(&quot;#SvgjsClipPath1002&quot;)"><path d=" M -1.0434443967225246 1.162031717442211 L -0.9632420423313608 1.2067809215437735 C -0.9494731568754071 1.2144675810265322 -0.9365071409136615 1.2144675810265322 -0.9227382554577078 1.2067809215437735 L -0.8426510443013231 1.162031717442211 C -0.8315205316060106 1.1558359148088597 -0.8260127163278587 1.1494103478974913 -0.8260127163278587 1.1332328539589136 L -0.8260127163278587 1.041555601551182 C -0.8260127163278587 1.026066225515689 -0.8316354137450193 1.0197555407433292 -0.8419617514672714 1.0139038623354626 L -0.921590739546474 0.969270193112335 C -0.9357042714194534 0.9613532471600182 -0.9502760263696152 0.9613532471600182 -0.9645031349027509 0.969270193112335 L -1.0441327757213796 1.0139038623354626 C -1.054344622948279 1.0197555407433292 -1.0599667981738985 1.026066225515689 -1.0599667981738985 1.041555601551182 L -1.0599667981738985 1.1332328539589136 C -1.0599667981738985 1.1494103478974913 -1.0544593745394024 1.1558359148088597 -1.0434443967225246 1.162031717442211 Z" fill="#231f20" transform="matrix(1,0,0,1,0,0)" fill-rule="nonzero"></path></g></g><g transform="matrix(0.10203065281732532,-0.9947812552946856,-0.9947812552946856,-0.10203065281732532,4.573033229020538,5.066061275189519)"><g clip-path="url(&quot;#SvgjsClipPath1003&quot;)"><path d=" M 3.7837475623650745 1.162031717442211 L 3.8639499167562383 1.2067809215437735 C 3.877718802212192 1.2144675810265322 3.8906848181739377 1.2144675810265322 3.9044537036298914 1.2067809215437735 L 3.984540914786276 1.162031717442211 C 3.9956714274815885 1.1558359148088597 4.001179242759741 1.1494103478974913 4.001179242759741 1.1332328539589136 L 4.001179242759741 1.041555601551182 C 4.001179242759741 1.026066225515689 3.99555654534258 1.0197555407433292 3.9852302076203276 1.0139038623354626 L 3.905601219541125 0.969270193112335 C 3.8914876876681457 0.9613532471600182 3.876915932717984 0.9613532471600182 3.8626888241848483 0.969270193112335 L 3.7830591833662193 1.0139038623354626 C 3.77284733613932 1.0197555407433292 3.7672251609137004 1.026066225515689 3.7672251609137004 1.041555601551182 L 3.7672251609137004 1.1332328539589136 C 3.7672251609137004 1.1494103478974913 3.772732584548197 1.1558359148088597 3.7837475623650745 1.162031717442211 Z" fill="#231f20" transform="matrix(1,0,0,1,0,0)" fill-rule="nonzero"></path></g></g></g><defs><clipPath id="SvgjsClipPath1001"><path d=" M 0 0 h 2.9413265434375386 v 1.811802084467596 h -2.9413265434375386 Z"></path></clipPath><clipPath id="ac3b813f7-78bf-4e9c-85d6-9e427f7da0a12d8f9770-af6a-4110-a729-5b3a38f130f4"><path d=" M 0 1.811802084467596 L 2.9413265434375386 1.811802084467596 L 2.9413265434375386 0 L 0 0 Z"></path></clipPath><clipPath id="SvgjsClipPath10002d8f9770-af6a-4110-a729-5b3a38f130f4"><path d=" M 0 0 L 2.9413265434375386 0 L 2.9413265434375386 1.811802084467596 L 0 1.811802084467596 Z"></path></clipPath><clipPath id="bc3b813f7-78bf-4e9c-85d6-9e427f7da0a12d8f9770-af6a-4110-a729-5b3a38f130f4"><path d=" M 0 1.811802084467596 L 2.9413265434375386 1.811802084467596 L 2.9413265434375386 0 L 0 0 Z"></path></clipPath><clipPath id="cc3b813f7-78bf-4e9c-85d6-9e427f7da0a12d8f9770-af6a-4110-a729-5b3a38f130f4"><path d=" M 0 1.811802084467596 L 2.9413265434375386 1.811802084467596 L 2.9413265434375386 0 L 0 0 Z"></path></clipPath><clipPath id="SvgjsClipPath1002"><path d=" M -1.1256997471569266 0.9014855535649212 h 0.3655340786637931 v 0.3785888671875 h -0.3655340786637931 Z"></path></clipPath><clipPath id="SvgjsClipPath1003"><path d=" M 3.7014922119306726 0.9014855535649212 h 0.3655340786637931 v 0.3785888671875 h -0.3655340786637931 Z"></path></clipPath></defs></svg>